<svg width="76" height="76" viewBox="0 0 76 76" fill="none" xmlns="http://www.w3.org/2000/svg">
<circle cx="38" cy="38" r="38" fill="#E4E4E4"/>
<path d="M57.875 54.75H17.875C17.3797 54.7435 16.9066 54.5439 16.5563 54.1937C16.2061 53.8434 16.0065 53.3703 16 52.875V40.375C16 37.8886 16.9877 35.504 18.7459 33.7459C20.504 31.9877 22.8886 31 25.375 31H50.375C52.8614 31 55.246 31.9877 57.0041 33.7459C58.7623 35.504 59.75 37.8886 59.75 40.375V52.875C59.7435 53.3703 59.5439 53.8434 59.1937 54.1937C58.8434 54.5439 58.3703 54.7435 57.875 54.75ZM19.75 51H56V40.375C56 38.8832 55.4074 37.4524 54.3525 36.3975C53.2976 35.3426 51.8668 34.75 50.375 34.75H25.375C23.8832 34.75 22.4524 35.3426 21.3975 36.3975C20.3426 37.4524 19.75 38.8832 19.75 40.375V51Z" fill="black"/>
<path d="M26.625 62.25C25.1332 62.25 23.7024 61.6574 22.6475 60.6025C21.5926 59.5476 21 58.1168 21 56.625V52.875C21 52.3777 21.1975 51.9008 21.5492 51.5492C21.9008 51.1975 22.3777 51 22.875 51C23.3723 51 23.8492 51.1975 24.2008 51.5492C24.5525 51.9008 24.75 52.3777 24.75 52.875V56.625C24.75 57.1223 24.9475 57.5992 25.2992 57.9508C25.6508 58.3025 26.1277 58.5 26.625 58.5C27.1223 58.5 27.5992 58.3025 27.9508 57.9508C28.3025 57.5992 28.5 57.1223 28.5 56.625V52.875C28.5 52.3777 28.6975 51.9008 29.0492 51.5492C29.4008 51.1975 29.8777 51 30.375 51C30.8723 51 31.3492 51.1975 31.7008 51.5492C32.0525 51.9008 32.25 52.3777 32.25 52.875V56.625C32.25 58.1168 31.6574 59.5476 30.6025 60.6025C29.5476 61.6574 28.1168 62.25 26.625 62.25Z" fill="black"/>
<path d="M49.125 62.25C47.6332 62.25 46.2024 61.6574 45.1475 60.6025C44.0926 59.5476 43.5 58.1168 43.5 56.625V52.875C43.5 52.3777 43.6975 51.9008 44.0492 51.5492C44.4008 51.1975 44.8777 51 45.375 51C45.8723 51 46.3492 51.1975 46.7008 51.5492C47.0525 51.9008 47.25 52.3777 47.25 52.875V56.625C47.25 57.1223 47.4475 57.5992 47.7992 57.9508C48.1508 58.3025 48.6277 58.5 49.125 58.5C49.6223 58.5 50.0992 58.3025 50.4508 57.9508C50.8025 57.5992 51 57.1223 51 56.625V52.875C51 52.3777 51.1975 51.9008 51.5492 51.5492C51.9008 51.1975 52.3777 51 52.875 51C53.3723 51 53.8492 51.1975 54.2008 51.5492C54.5525 51.9008 54.75 52.3777 54.75 52.875V56.625C54.75 58.1168 54.1574 59.5476 53.1025 60.6025C52.0476 61.6574 50.6168 62.25 49.125 62.25Z" fill="black"/>
<path d="M27.875 44.75C27.6256 44.7508 27.3787 44.6997 27.15 44.6C26.6974 44.4123 26.3378 44.0526 26.15 43.6C26.0503 43.3714 25.9992 43.1245 26 42.875C26.0197 42.404 26.2161 41.9577 26.55 41.625C26.7234 41.4555 26.9269 41.3199 27.15 41.225C27.3789 41.1259 27.6256 41.0748 27.875 41.0748C28.1244 41.0748 28.3711 41.1259 28.6 41.225C28.8231 41.3199 29.0266 41.4555 29.2 41.625C29.5517 41.9763 29.7496 42.4529 29.75 42.95C29.7508 43.1995 29.6997 43.4464 29.6 43.675C29.4123 44.1276 29.0526 44.4873 28.6 44.675C28.3656 44.7472 28.1193 44.7727 27.875 44.75Z" fill="black"/>
<path d="M47.875 44.75C47.6258 44.7487 47.3793 44.6977 47.15 44.6C46.6974 44.4123 46.3378 44.0526 46.15 43.6C46.0503 43.3713 45.9992 43.1245 46 42.875C46.0004 42.3779 46.1983 41.9013 46.55 41.55C46.7234 41.3805 46.9269 41.2449 47.15 41.15C47.3789 41.0509 47.6256 40.9998 47.875 40.9998C48.1244 40.9998 48.3711 41.0509 48.6 41.15C48.8231 41.2449 49.0266 41.3805 49.2 41.55C49.5511 41.9016 49.7484 42.3781 49.7484 42.875C49.7484 43.3719 49.5511 43.8484 49.2 44.2C49.0266 44.3695 48.8231 44.5051 48.6 44.6C48.3713 44.6997 48.1245 44.7508 47.875 44.75Z" fill="black"/>
<path d="M52.875 34.75H22.875C22.3797 34.7435 21.9066 34.5439 21.5563 34.1937C21.2061 33.8434 21.0065 33.3703 21 32.875V25.375C21 22.8886 21.9877 20.504 23.7459 18.7459C25.504 16.9877 27.8886 16 30.375 16H45.375C47.8614 16 50.246 16.9877 52.0041 18.7459C53.7623 20.504 54.75 22.8886 54.75 25.375V32.875C54.7435 33.3703 54.5439 33.8434 54.1937 34.1937C53.8434 34.5439 53.3703 34.7435 52.875 34.75ZM24.75 31H51V25.375C51 23.8832 50.4074 22.4524 49.3525 21.3975C48.2976 20.3426 46.8668 19.75 45.375 19.75H30.375C28.8832 19.75 27.4524 20.3426 26.3975 21.3975C25.3426 22.4524 24.75 23.8832 24.75 25.375V31Z" fill="black"/>
</svg>
