<svg width="76" height="76" viewBox="0 0 76 76" fill="none" xmlns="http://www.w3.org/2000/svg">
<circle cx="38" cy="38" r="38" fill="#E4E4E4"/>
<path d="M25.375 62.75C23.5516 62.75 21.803 62.0257 20.5136 60.7364C19.2243 59.447 18.5 57.6984 18.5 55.875V45.875C18.5 44.0516 19.2243 42.303 20.5136 41.0136C21.803 39.7243 23.5516 39 25.375 39C27.1984 39 28.947 39.7243 30.2364 41.0136C31.5257 42.303 32.25 44.0516 32.25 45.875V55.875C32.25 57.6984 31.5257 59.447 30.2364 60.7364C28.947 62.0257 27.1984 62.75 25.375 62.75ZM25.375 42.75C24.5462 42.75 23.7513 43.0792 23.1653 43.6653C22.5792 44.2513 22.25 45.0462 22.25 45.875V55.875C22.25 56.7038 22.5792 57.4987 23.1653 58.0847C23.7513 58.6708 24.5462 59 25.375 59C26.2038 59 26.9987 58.6708 27.5847 58.0847C28.1708 57.4987 28.5 56.7038 28.5 55.875V45.875C28.5 45.0462 28.1708 44.2513 27.5847 43.6653C26.9987 43.0792 26.2038 42.75 25.375 42.75Z" fill="black"/>
<path d="M50.375 62.75C48.5516 62.75 46.803 62.0257 45.5136 60.7364C44.2243 59.447 43.5 57.6984 43.5 55.875V45.875C43.5 44.0516 44.2243 42.303 45.5136 41.0136C46.803 39.7243 48.5516 39 50.375 39C52.1984 39 53.947 39.7243 55.2364 41.0136C56.5257 42.303 57.25 44.0516 57.25 45.875V55.875C57.25 57.6984 56.5257 59.447 55.2364 60.7364C53.947 62.0257 52.1984 62.75 50.375 62.75ZM50.375 42.75C49.5462 42.75 48.7513 43.0792 48.1653 43.6653C47.5792 44.2513 47.25 45.0462 47.25 45.875V55.875C47.25 56.7038 47.5792 57.4987 48.1653 58.0847C48.7513 58.6708 49.5462 59 50.375 59C51.2038 59 51.9987 58.6708 52.5847 58.0847C53.1708 57.4987 53.5 56.7038 53.5 55.875V45.875C53.5 45.0462 53.1708 44.2513 52.5847 43.6653C51.9987 43.0792 51.2038 42.75 50.375 42.75Z" fill="black"/>
<path d="M62.875 52.75C62.3797 52.7435 61.9066 52.5439 61.5563 52.1937C61.2061 51.8434 61.0065 51.3703 61 50.875V40.875C61 34.7419 58.5636 28.8599 54.2268 24.5232C49.8901 20.1864 44.0081 17.75 37.875 17.75C31.7419 17.75 25.8599 20.1864 21.5232 24.5232C17.1864 28.8599 14.75 34.7419 14.75 40.875V50.875C14.75 51.3723 14.5525 51.8492 14.2008 52.2008C13.8492 52.5525 13.3723 52.75 12.875 52.75C12.3777 52.75 11.9008 52.5525 11.5492 52.2008C11.1975 51.8492 11 51.3723 11 50.875V40.875C11 33.7473 13.8315 26.9115 18.8715 21.8715C23.9115 16.8315 30.7473 14 37.875 14C45.0027 14 51.8385 16.8315 56.8785 21.8715C61.9185 26.9115 64.75 33.7473 64.75 40.875V50.875C64.7435 51.3703 64.5439 51.8434 64.1937 52.1937C63.8434 52.5439 63.3703 52.7435 62.875 52.75Z" fill="black"/>
</svg>
