<svg width="76" height="76" viewBox="0 0 76 76" fill="none" xmlns="http://www.w3.org/2000/svg">
<circle cx="38" cy="38" r="38" fill="#E4E4E4"/>
<path d="M55.375 56.25H20.375C17.8886 56.25 15.504 55.2623 13.7459 53.5041C11.9877 51.746 11 49.3614 11 46.875V29.375C11 26.8886 11.9877 24.504 13.7459 22.7459C15.504 20.9877 17.8886 20 20.375 20H55.375C57.8614 20 60.246 20.9877 62.0041 22.7459C63.7623 24.504 64.75 26.8886 64.75 29.375V46.875C64.75 49.3614 63.7623 51.746 62.0041 53.5041C60.246 55.2623 57.8614 56.25 55.375 56.25ZM20.375 23.75C18.8832 23.75 17.4524 24.3426 16.3975 25.3975C15.3426 26.4524 14.75 27.8832 14.75 29.375V46.875C14.75 48.3668 15.3426 49.7976 16.3975 50.8525C17.4524 51.9074 18.8832 52.5 20.375 52.5H55.375C56.8668 52.5 58.2976 51.9074 59.3525 50.8525C60.4074 49.7976 61 48.3668 61 46.875V29.375C61 27.8832 60.4074 26.4524 59.3525 25.3975C58.2976 24.3426 56.8668 23.75 55.375 23.75H20.375Z" fill="black"/>
<path d="M32.875 46.25H22.875C22.3777 46.25 21.9008 46.0525 21.5492 45.7008C21.1975 45.3492 21 44.8723 21 44.375C21 43.8777 21.1975 43.4008 21.5492 43.0492C21.9008 42.6975 22.3777 42.5 22.875 42.5H32.875C33.3723 42.5 33.8492 42.6975 34.2008 43.0492C34.5525 43.4008 34.75 43.8777 34.75 44.375C34.75 44.8723 34.5525 45.3492 34.2008 45.7008C33.8492 46.0525 33.3723 46.25 32.875 46.25Z" fill="black"/>
<path d="M47.875 46.25H40.375C39.8777 46.25 39.4008 46.0525 39.0492 45.7008C38.6975 45.3492 38.5 44.8723 38.5 44.375C38.5 43.8777 38.6975 43.4008 39.0492 43.0492C39.4008 42.6975 39.8777 42.5 40.375 42.5H47.875C48.3723 42.5 48.8492 42.6975 49.2008 43.0492C49.5525 43.4008 49.75 43.8777 49.75 44.375C49.75 44.8723 49.5525 45.3492 49.2008 45.7008C48.8492 46.0525 48.3723 46.25 47.875 46.25Z" fill="black"/>
</svg>
