<svg width="97" height="97" viewBox="0 0 97 97" fill="none" xmlns="http://www.w3.org/2000/svg">
<path d="M23.3134 70.3999V58.4031H25.0615V70.3999H23.3134ZM18.1719 60.117H14.7443V58.4031H18.1719V60.117ZM19.8858 70.3999H18.1719V58.4031H19.8858V70.3999ZM13.0305 70.3999V58.4031H14.7786V70.3999H13.0305ZM23.3134 60.117H19.8858V58.4031H23.3134V60.117ZM14.7443 53.2617H13.0305V22.4129H14.7443V53.2617ZM21.5996 53.2617H16.4581V22.4129H21.5996V53.2617ZM25.0272 53.2617H23.3134V22.4129H25.0272V53.2617ZM29.0875 61.8308V70.3999H30.8013V61.8308H29.0875ZM35.9428 61.8308H30.8013V63.5446H35.9428V61.8308ZM34.229 63.5446V65.2584H35.9428V63.5446H34.229ZM30.8013 53.2617H29.0875V22.4129H30.8013V53.2617ZM34.229 53.2617H32.5152V22.4129H34.229V53.2617ZM54.3497 70.4342H49.2082V68.7204H54.3497V70.4342ZM47.4944 70.4342V58.4374H49.2425V70.4342H47.4944ZM50.2365 53.2617H47.4944V22.4129H50.2365V53.2617ZM54.3497 53.2617H52.6358V22.4129H54.3497V53.2617ZM57.6334 61.8651V70.4342H59.3815V61.8651H57.6334ZM59.3472 58.4374H57.6676V60.1512H59.3472V58.4374ZM59.3472 53.2617H57.6334V22.4129H59.3472V53.2617ZM63.5514 61.8308H68.6929V63.4761H63.5514V61.8308ZM65.2652 63.5446V70.3999H63.5514V63.5446H65.2652ZM65.2652 68.6861H70.4067V70.3999H65.2652V68.6861ZM70.4067 61.8308V66.9723H68.7271V61.8308H70.4067ZM65.2652 65.2584H68.6929V66.9723H65.2652V65.2584ZM66.979 53.2617H63.5514V22.4129H66.979V53.2617ZM70.4067 53.2617H68.6929V22.4129H70.4067V53.2617ZM73.7774 61.8308V70.4342H75.4913V61.8308H73.7774ZM82.3465 61.8308H75.4913V63.5446H82.3465V61.8308ZM80.6327 63.5446V70.3999H82.3808V63.5446H80.6327ZM77.2051 63.5446V70.3999H78.9532V63.5446H77.2051ZM75.4913 53.2617H73.7774V22.4129H75.4913V53.2617ZM78.9189 53.2617H77.2051V22.4129H78.9189V53.2617ZM82.3465 53.2617H80.6327V22.4129H82.3465V53.2617Z" fill="black"/>
</svg>
