<svg width="76" height="76" viewBox="0 0 76 76" fill="none" xmlns="http://www.w3.org/2000/svg">
<circle cx="38" cy="38" r="38" fill="#E4E4E4"/>
<path d="M54.55 53.875H21.45C18.716 53.875 16.0935 52.7906 14.1579 50.8597C12.2224 48.9288 11.1316 46.309 11.125 43.575V22.425C11.1316 19.691 12.2224 17.0712 14.1579 15.1403C16.0935 13.2094 18.716 12.125 21.45 12.125H54.55C57.284 12.125 59.9065 13.2094 61.8421 15.1403C63.7776 17.0712 64.8684 19.691 64.875 22.425V43.575C64.8684 46.309 63.7776 48.9288 61.8421 50.8597C59.9065 52.7906 57.284 53.875 54.55 53.875ZM21.45 15.875C19.7105 15.875 18.0419 16.5643 16.8096 17.7919C15.5773 19.0196 14.8816 20.6855 14.875 22.425V43.575C14.8816 45.3145 15.5773 46.9804 16.8096 48.2081C18.0419 49.4357 19.7105 50.125 21.45 50.125H54.55C56.2895 50.125 57.9581 49.4357 59.1904 48.2081C60.4227 46.9804 61.1184 45.3145 61.125 43.575V22.425C61.1184 20.6855 60.4227 19.0196 59.1904 17.7919C57.9581 16.5643 56.2895 15.875 54.55 15.875H21.45Z" fill="black"/>
<path d="M38 63.875C37.5027 63.875 37.0258 63.6775 36.6742 63.3258C36.3225 62.9742 36.125 62.4973 36.125 62V52C36.125 51.5027 36.3225 51.0258 36.6742 50.6742C37.0258 50.3225 37.5027 50.125 38 50.125C38.4973 50.125 38.9742 50.3225 39.3258 50.6742C39.6775 51.0258 39.875 51.5027 39.875 52V62C39.875 62.4973 39.6775 62.9742 39.3258 63.3258C38.9742 63.6775 38.4973 63.875 38 63.875Z" fill="black"/>
<path d="M53 63.875H23C22.5027 63.875 22.0258 63.6775 21.6742 63.3258C21.3225 62.9742 21.125 62.4973 21.125 62C21.125 61.5027 21.3225 61.0258 21.6742 60.6742C22.0258 60.3225 22.5027 60.125 23 60.125H53C53.4973 60.125 53.9742 60.3225 54.3258 60.6742C54.6775 61.0258 54.875 61.5027 54.875 62C54.875 62.4973 54.6775 62.9742 54.3258 63.3258C53.9742 63.6775 53.4973 63.875 53 63.875Z" fill="black"/>
</svg>
