<svg width="76" height="76" viewBox="0 0 76 76" fill="none" xmlns="http://www.w3.org/2000/svg">
<circle cx="38" cy="38" r="38" fill="#E4E4E4"/>
<path d="M39.25 63C34.8849 62.9934 30.7009 61.2547 27.6166 58.1658C24.5324 55.0768 22.8 50.8901 22.8 46.525V30.275C22.8 28.1148 23.2255 25.9757 24.0522 23.9799C24.8789 21.9841 26.0906 20.1706 27.6181 18.6431C29.1457 17.1156 30.9591 15.9039 32.9549 15.0772C34.9507 14.2505 37.0898 13.825 39.25 13.825C41.4103 13.825 43.5494 14.2505 45.5452 15.0772C47.541 15.9039 49.3544 17.1156 50.882 18.6431C52.4095 20.1706 53.6212 21.9841 54.4479 23.9799C55.2746 25.9757 55.7001 28.1148 55.7001 30.275V46.525C55.7001 50.8901 53.9677 55.0768 50.8835 58.1658C47.7992 61.2547 43.6152 62.9934 39.25 63ZM39.25 17.575C35.8838 17.5816 32.6574 18.9218 30.2771 21.3021C27.8968 23.6823 26.5567 26.9088 26.55 30.275V46.525C26.55 48.1928 26.8785 49.8443 27.5168 51.3851C28.155 52.9259 29.0905 54.326 30.2698 55.5053C31.4491 56.6846 32.8491 57.62 34.39 58.2583C35.9308 58.8965 37.5823 59.225 39.25 59.225C40.9178 59.225 42.5693 58.8965 44.1101 58.2583C45.651 57.62 47.051 56.6846 48.2303 55.5053C49.4096 54.326 50.3451 52.9259 50.9833 51.3851C51.6216 49.8443 51.9501 48.1928 51.9501 46.525V30.275C51.9434 26.9088 50.6033 23.6823 48.223 21.3021C45.8427 18.9218 42.6163 17.5816 39.25 17.575Z" fill="black"/>
<path d="M39.25 37.3C38.7527 37.3 38.2758 37.1025 37.9242 36.7508C37.5725 36.3992 37.375 35.9223 37.375 35.425V28.55C37.375 28.3038 37.4235 28.06 37.5177 27.8325C37.612 27.605 37.7501 27.3983 37.9242 27.2242C38.0983 27.0501 38.305 26.912 38.5325 26.8177C38.76 26.7235 39.0038 26.675 39.25 26.675C39.4962 26.675 39.74 26.7235 39.9675 26.8177C40.195 26.912 40.4017 27.0501 40.5758 27.2242C40.7499 27.3983 40.888 27.605 40.9823 27.8325C41.0765 28.06 41.125 28.3038 41.125 28.55V35.5C41.1056 35.9842 40.8996 36.4421 40.55 36.7776C40.2004 37.1132 39.7346 37.3004 39.25 37.3Z" fill="black"/>
</svg>
