<svg width="60" height="60" viewBox="0 0 60 60" fill="none" xmlns="http://www.w3.org/2000/svg">
<path d="M14.4207 43V35.5793H15.502V43H14.4207ZM11.2404 36.6394H9.12019V35.5793H11.2404V36.6394ZM12.3005 43H11.2404V35.5793H12.3005V43ZM8.0601 43V35.5793H9.14139V43H8.0601ZM14.4207 36.6394H12.3005V35.5793H14.4207V36.6394ZM9.12019 32.399H8.0601V13.3173H9.12019V32.399ZM13.3606 32.399H10.1803V13.3173H13.3606V32.399ZM15.4808 32.399H14.4207V13.3173H15.4808V32.399ZM17.9923 37.6995V43H19.0524V37.6995H17.9923ZM22.2327 37.6995H19.0524V38.7596H22.2327V37.6995ZM21.1726 38.7596V39.8197H22.2327V38.7596H21.1726ZM19.0524 32.399H17.9923V13.3173H19.0524V32.399ZM21.1726 32.399H20.1125V13.3173H21.1726V32.399ZM33.6183 43.0212H30.4381V41.9611H33.6183V43.0212ZM29.378 43.0212V35.6005H30.4593V43.0212H29.378ZM31.0741 32.399H29.378V13.3173H31.0741V32.399ZM33.6183 32.399H32.5583V13.3173H33.6183V32.399ZM35.6495 37.7207V43.0212H36.7308V37.7207H35.6495ZM36.7096 35.6005H35.6707V36.6606H36.7096V35.6005ZM36.7096 32.399H35.6495V13.3173H36.7096V32.399ZM39.3102 37.6995H42.4904V38.7172H39.3102V37.6995ZM40.3703 38.7596V43H39.3102V38.7596H40.3703ZM40.3703 41.9399H43.5505V43H40.3703V41.9399ZM43.5505 37.6995V40.8798H42.5116V37.6995H43.5505ZM40.3703 39.8197H42.4904V40.8798H40.3703V39.8197ZM41.4303 32.399H39.3102V13.3173H41.4303V32.399ZM43.5505 32.399H42.4904V13.3173H43.5505V32.399ZM45.6355 37.6995V43.0212H46.6956V37.6995H45.6355ZM50.936 37.6995H46.6956V38.7596H50.936V37.6995ZM49.8759 38.7596V43H50.9572V38.7596H49.8759ZM47.7557 38.7596V43H48.837V38.7596H47.7557ZM46.6956 32.399H45.6355V13.3173H46.6956V32.399ZM48.8158 32.399H47.7557V13.3173H48.8158V32.399ZM50.936 32.399H49.8759V13.3173H50.936V32.399Z" fill="black"/>
</svg>
