<svg width="26" height="40" viewBox="0 0 26 40" fill="none" xmlns="http://www.w3.org/2000/svg">
<path d="M18.1395 40H6.97674C5.1264 40 3.35183 39.265 2.04344 37.9566C0.735048 36.6482 0 34.8736 0 33.0233V6.97674C0 5.1264 0.735048 3.35183 2.04344 2.04344C3.35183 0.735048 5.1264 0 6.97674 0H18.1395C19.9899 0 21.7644 0.735048 23.0728 2.04344C24.3812 3.35183 25.1163 5.1264 25.1163 6.97674V33.0233C25.1163 34.8736 24.3812 36.6482 23.0728 37.9566C21.7644 39.265 19.9899 40 18.1395 40ZM6.97674 2.7907C5.86654 2.7907 4.8018 3.23173 4.01676 4.01676C3.23173 4.8018 2.7907 5.86654 2.7907 6.97674V33.0233C2.7907 34.1335 3.23173 35.1982 4.01676 35.9832C4.8018 36.7683 5.86654 37.2093 6.97674 37.2093H18.1395C19.2497 37.2093 20.3145 36.7683 21.0995 35.9832C21.8846 35.1982 22.3256 34.1335 22.3256 33.0233V6.97674C22.3256 5.86654 21.8846 4.8018 21.0995 4.01676C20.3145 3.23173 19.2497 2.7907 18.1395 2.7907H6.97674Z" fill="black"/>
<path d="M14.4185 34.4186H10.6976C10.3275 34.4186 9.97261 34.2716 9.71094 34.0099C9.44926 33.7482 9.30225 33.3933 9.30225 33.0232C9.30225 32.6532 9.44926 32.2983 9.71094 32.0366C9.97261 31.7749 10.3275 31.6279 10.6976 31.6279H14.4185C14.7886 31.6279 15.1435 31.7749 15.4052 32.0366C15.6669 32.2983 15.8139 32.6532 15.8139 33.0232C15.8139 33.3933 15.6669 33.7482 15.4052 34.0099C15.1435 34.2716 14.7886 34.4186 14.4185 34.4186Z" fill="black"/>
</svg>
