<svg width="76" height="76" viewBox="0 0 76 76" fill="none" xmlns="http://www.w3.org/2000/svg">
<circle cx="38" cy="38" r="38" fill="#E4E4E4"/>
<path d="M43.1395 58H31.9767C30.1264 58 28.3518 57.265 27.0434 55.9566C25.735 54.6482 25 52.8736 25 51.0233V24.9767C25 23.1264 25.735 21.3518 27.0434 20.0434C28.3518 18.735 30.1264 18 31.9767 18H43.1395C44.9899 18 46.7644 18.735 48.0728 20.0434C49.3812 21.3518 50.1163 23.1264 50.1163 24.9767V51.0233C50.1163 52.8736 49.3812 54.6482 48.0728 55.9566C46.7644 57.265 44.9899 58 43.1395 58ZM31.9767 20.7907C30.8665 20.7907 29.8018 21.2317 29.0168 22.0168C28.2317 22.8018 27.7907 23.8665 27.7907 24.9767V51.0233C27.7907 52.1335 28.2317 53.1982 29.0168 53.9832C29.8018 54.7683 30.8665 55.2093 31.9767 55.2093H43.1395C44.2497 55.2093 45.3145 54.7683 46.0995 53.9832C46.8846 53.1982 47.3256 52.1335 47.3256 51.0233V24.9767C47.3256 23.8665 46.8846 22.8018 46.0995 22.0168C45.3145 21.2317 44.2497 20.7907 43.1395 20.7907H31.9767Z" fill="black"/>
<path d="M39.4185 52.4186H35.6976C35.3275 52.4186 34.9726 52.2716 34.7109 52.0099C34.4493 51.7482 34.3022 51.3933 34.3022 51.0232C34.3022 50.6532 34.4493 50.2983 34.7109 50.0366C34.9726 49.7749 35.3275 49.6279 35.6976 49.6279H39.4185C39.7886 49.6279 40.1435 49.7749 40.4052 50.0366C40.6669 50.2983 40.8139 50.6532 40.8139 51.0232C40.8139 51.3933 40.6669 51.7482 40.4052 52.0099C40.1435 52.2716 39.7886 52.4186 39.4185 52.4186Z" fill="black"/>
</svg>
