<svg width="28" height="28" viewBox="0 0 28 28" fill="none" xmlns="http://www.w3.org/2000/svg">
<g clip-path="url(#clip0_103_549)">
<path d="M14 0C21.7199 0 28 6.28009 28 14C28 21.7199 21.7199 28 14 28C6.28009 28 0 21.7199 0 14C0 6.28009 6.28009 0 14 0Z" fill="#F44336"/>
<path d="M8.8444 17.5059C8.38831 17.9622 8.38831 18.6994 8.8444 19.1557C9.07191 19.3832 9.37055 19.4975 9.66941 19.4975C9.96806 19.4975 10.2667 19.3832 10.4942 19.1557L14 15.6497L17.5057 19.1557C17.7333 19.3832 18.0319 19.4975 18.3305 19.4975C18.6294 19.4975 18.928 19.3832 19.1556 19.1557C19.6116 18.6994 19.6116 17.9622 19.1556 17.5059L15.6496 14.0001L19.1556 10.4943C19.6116 10.038 19.6116 9.3008 19.1556 8.84451C18.6993 8.38842 17.962 8.38842 17.5057 8.84451L14 12.3505L10.4942 8.84451C10.0379 8.38842 9.3007 8.38842 8.8444 8.84451C8.38831 9.3008 8.38831 10.038 8.8444 10.4943L12.3504 14.0001L8.8444 17.5059Z" fill="#FAFAFA"/>
</g>
<defs>
<clipPath id="clip0_103_549">
<rect width="28" height="28" fill="white" transform="matrix(-1 0 0 1 28 0)"/>
</clipPath>
</defs>
</svg>
